<svg width="21" height="19" viewBox="0 0 21 19" fill="none" xmlns="http://www.w3.org/2000/svg">
<mask id="path-1-inside-1_2529_155061" fill="white">
<rect width="3.91667" height="3.91667" rx="0.783333"/>
</mask>
<rect width="3.91667" height="3.91667" rx="0.783333" fill="#EB63AC" stroke="#EB63AC" style="fill:#EB63AC;fill:color(display-p3 0.9207 0.3876 0.6755);fill-opacity:1;stroke:#EB63AC;stroke:color(display-p3 0.9207 0.3876 0.6755);stroke-opacity:1;" stroke-width="2.35" mask="url(#path-1-inside-1_2529_155061)"/>
<mask id="path-2-inside-2_2529_155061" fill="white">
<rect x="5.4834" width="3.91667" height="3.91667" rx="0.783333"/>
</mask>
<rect x="5.4834" width="3.91667" height="3.91667" rx="0.783333" fill="#EB63AC" stroke="#EB63AC" style="fill:#EB63AC;fill:color(display-p3 0.9207 0.3876 0.6755);fill-opacity:1;stroke:#EB63AC;stroke:color(display-p3 0.9207 0.3876 0.6755);stroke-opacity:1;" stroke-width="2.35" mask="url(#path-2-inside-2_2529_155061)"/>
<mask id="path-3-inside-3_2529_155061" fill="white">
<rect x="10.9668" width="3.91667" height="3.91667" rx="0.783333"/>
</mask>
<rect x="10.9668" width="3.91667" height="3.91667" rx="0.783333" fill="#EB63AC" stroke="#EB63AC" style="fill:#EB63AC;fill:color(display-p3 0.9207 0.3876 0.6755);fill-opacity:1;stroke:#EB63AC;stroke:color(display-p3 0.9207 0.3876 0.6755);stroke-opacity:1;" stroke-width="2.35" mask="url(#path-3-inside-3_2529_155061)"/>
<mask id="path-4-inside-4_2529_155061" fill="white">
<rect y="5.4834" width="3.91667" height="3.91667" rx="0.783333"/>
</mask>
<rect y="5.4834" width="3.91667" height="3.91667" rx="0.783333" fill="#EB63AC" stroke="#EB63AC" style="fill:#EB63AC;fill:color(display-p3 0.9207 0.3876 0.6755);fill-opacity:1;stroke:#EB63AC;stroke:color(display-p3 0.9207 0.3876 0.6755);stroke-opacity:1;" stroke-width="2.35" mask="url(#path-4-inside-4_2529_155061)"/>
<path d="M6.0709 6.26673C6.0709 6.15858 6.15858 6.0709 6.26673 6.0709H8.61673C8.72489 6.0709 8.81257 6.15858 8.81257 6.26673V8.61673C8.81257 8.72489 8.72489 8.81257 8.61673 8.81257H6.26673C6.15858 8.81257 6.0709 8.72489 6.0709 8.61673V6.26673Z" fill="#EB63AC" stroke="#EB63AC" style="fill:#EB63AC;fill:color(display-p3 0.9207 0.3876 0.6755);fill-opacity:1;stroke:#EB63AC;stroke:color(display-p3 0.9207 0.3876 0.6755);stroke-opacity:1;" stroke-width="1.175"/>
<mask id="path-6-inside-5_2529_155061" fill="white">
<rect x="10.9668" y="5.4834" width="3.91667" height="3.91667" rx="0.783333"/>
</mask>
<rect x="10.9668" y="5.4834" width="3.91667" height="3.91667" rx="0.783333" fill="#EB63AC" stroke="#EB63AC" style="fill:#EB63AC;fill:color(display-p3 0.9207 0.3876 0.6755);fill-opacity:1;stroke:#EB63AC;stroke:color(display-p3 0.9207 0.3876 0.6755);stroke-opacity:1;" stroke-width="2.35" mask="url(#path-6-inside-5_2529_155061)"/>
<path d="M12.4772 11.4514H13.9103C14.2343 11.4515 14.5507 11.5505 14.8169 11.7352C15.0832 11.9199 15.2868 12.1815 15.4004 12.485C15.5661 12.9226 15.8599 13.3 16.2433 13.5681C16.6268 13.8362 17.0822 13.9825 17.55 13.9879C17.7592 13.9913 17.9668 13.9526 18.1607 13.8742C18.3546 13.7957 18.5307 13.6791 18.6786 13.5312C18.8265 13.3833 18.9432 13.2072 19.0216 13.0133C19.1001 12.8194 19.1387 12.6117 19.1353 12.4026C19.1311 12.1884 19.1013 11.9755 19.0465 11.7685L17.7403 6.98097C17.5941 6.44376 17.2753 5.96956 16.833 5.6315C16.3906 5.29345 15.8493 5.11031 15.2926 5.11035H9.66175C9.10502 5.11031 8.56374 5.29345 8.1214 5.6315C7.67906 5.96956 7.36023 6.44376 7.21409 6.98097L5.90783 11.7685C5.85303 11.9755 5.82322 12.1884 5.81906 12.4026C5.81563 12.6117 5.85429 12.8194 5.93274 13.0133C6.0112 13.2072 6.12784 13.3833 6.27573 13.5312C6.42363 13.6791 6.59975 13.7957 6.79364 13.8742C6.98752 13.9526 7.1952 13.9913 7.40433 13.9879C7.87652 13.9876 8.33746 13.8437 8.72594 13.5753C9.11442 13.3068 9.41205 12.9266 9.57931 12.485C9.69138 12.1855 9.89107 11.9267 10.1523 11.7424C10.4136 11.558 10.7244 11.4566 11.0441 11.4514H12.4772Z" fill="white" stroke="white" style="fill:white;fill-opacity:1;stroke:white;stroke-opacity:1;" stroke-width="3.13333" stroke-miterlimit="10" stroke-linecap="round"/>
<path fill-rule="evenodd" clip-rule="evenodd" d="M14.0627 3.16133C13.8822 3.16133 13.7091 3.23305 13.5814 3.3607C13.4537 3.48836 13.382 3.66151 13.382 3.84204V5.11026C13.382 5.43472 13.119 5.69776 12.7945 5.69776C12.4701 5.69776 12.207 5.43472 12.207 5.11026V3.84204C12.207 3.34988 12.4025 2.87787 12.7506 2.52985C13.0986 2.18184 13.5706 1.98633 14.0627 1.98633H15.331C15.6554 1.98633 15.9185 2.24936 15.9185 2.57383C15.9185 2.8983 15.6554 3.16133 15.331 3.16133H14.0627Z" fill="#F33621" stroke="white" style="fill:#F33621;fill:color(display-p3 0.9542 0.2121 0.1292);fill-opacity:1;stroke:white;stroke-opacity:1;" stroke-width="1.56667" stroke-miterlimit="10" stroke-linecap="round"/>
<path d="M9.94092 7.64648V9.54881" stroke="#EB63AC" style="stroke:#EB63AC;stroke:color(display-p3 0.9207 0.3876 0.6755);stroke-opacity:1;" stroke-width="1.175" stroke-miterlimit="10" stroke-linecap="round"/>
<path d="M10.8921 8.59766H8.98975" stroke="#EB63AC" style="stroke:#EB63AC;stroke:color(display-p3 0.9207 0.3876 0.6755);stroke-opacity:1;" stroke-width="1.175" stroke-miterlimit="10" stroke-linecap="round"/>
<path d="M15.6473 8.5978C15.9975 8.5978 16.2814 8.3139 16.2814 7.9637C16.2814 7.61349 15.9975 7.32959 15.6473 7.32959C15.2971 7.32959 15.0132 7.61349 15.0132 7.9637C15.0132 8.3139 15.2971 8.5978 15.6473 8.5978Z" fill="#EB63AC" style="fill:#EB63AC;fill:color(display-p3 0.9207 0.3876 0.6755);fill-opacity:1;"/>
<path d="M14.3797 9.86587C14.7299 9.86587 15.0138 9.58197 15.0138 9.23176C15.0138 8.88156 14.7299 8.59766 14.3797 8.59766C14.0295 8.59766 13.7456 8.88156 13.7456 9.23176C13.7456 9.58197 14.0295 9.86587 14.3797 9.86587Z" fill="#EB63AC" style="fill:#EB63AC;fill:color(display-p3 0.9207 0.3876 0.6755);fill-opacity:1;"/>
<path d="M12.4772 11.4514H13.9103C14.2343 11.4515 14.5507 11.5505 14.8169 11.7352C15.0832 11.9199 15.2868 12.1815 15.4004 12.485V12.485C15.5661 12.9226 15.8599 13.3 16.2433 13.5681C16.6268 13.8362 17.0822 13.9825 17.55 13.9879V13.9879C17.7592 13.9913 17.9668 13.9526 18.1607 13.8742C18.3546 13.7957 18.5307 13.6791 18.6786 13.5312C18.8265 13.3833 18.9432 13.2072 19.0216 13.0133C19.1001 12.8194 19.1387 12.6117 19.1353 12.4026V12.4026C19.1311 12.1884 19.1013 11.9755 19.0465 11.7685L17.7403 6.98097C17.5941 6.44376 17.2753 5.96956 16.833 5.6315C16.3906 5.29345 15.8493 5.11031 15.2926 5.11035H9.66175C9.10502 5.11031 8.56374 5.29345 8.1214 5.6315C7.67906 5.96956 7.36023 6.44376 7.21409 6.98097L5.90783 11.7685C5.85303 11.9755 5.82322 12.1884 5.81906 12.4026V12.4026C5.81563 12.6117 5.85429 12.8194 5.93274 13.0133C6.0112 13.2072 6.12784 13.3833 6.27573 13.5312C6.42363 13.6791 6.59975 13.7957 6.79364 13.8742C6.98752 13.9526 7.1952 13.9913 7.40432 13.9879V13.9879C7.87652 13.9876 8.33746 13.8437 8.72594 13.5753C9.11442 13.3068 9.41205 12.9266 9.57931 12.485C9.69138 12.1855 9.89106 11.9267 10.1523 11.7424C10.4136 11.558 10.7244 11.4566 11.0441 11.4514H12.4772Z" stroke="#EB63AC" style="stroke:#EB63AC;stroke:color(display-p3 0.9207 0.3876 0.6755);stroke-opacity:1;" stroke-width="1.175" stroke-miterlimit="10" stroke-linecap="round"/>
<path d="M12.7944 5.11016V3.84194C12.7944 3.50559 12.928 3.18302 13.1659 2.94518C13.4037 2.70735 13.7263 2.57373 14.0626 2.57373H15.3309" stroke="#EB63AC" style="stroke:#EB63AC;stroke:color(display-p3 0.9207 0.3876 0.6755);stroke-opacity:1;" stroke-width="1.175" stroke-miterlimit="10" stroke-linecap="round"/>
</svg>
